<?xml version="1.0" encoding="UTF-8"?>
<svg id="Layer_1" xmlns="http://www.w3.org/2000/svg" xmlns:xlink="http://www.w3.org/1999/xlink" version="1.1" viewBox="0 0 32 32">
  <!-- Generator: Adobe Illustrator 30.2.1, SVG Export Plug-In . SVG Version: 2.1.1 Build 1)  -->
  <defs>
    <style>
      .st0 {
        fill: url(#radial-gradient);
      }

      .st1 {
        isolation: isolate;
      }

      .st2 {
        fill: #fff;
      }
    </style>
    <radialGradient id="radial-gradient" cx="16" cy="16" fx="16" fy="16" r="16" gradientUnits="userSpaceOnUse">
      <stop offset="0" stop-color="#7b5ea7"/>
      <stop offset=".2" stop-color="#7459a3"/>
      <stop offset=".6" stop-color="#644c9a"/>
      <stop offset="1" stop-color="#48368a"/>
      <stop offset="1" stop-color="#438"/>
    </radialGradient>
  </defs>
  <g>
    <rect class="st0" width="32" height="32" rx="6" ry="6"/>
    <path class="st2" d="M26,.5c3,0,5.5,2.5,5.5,5.5v20c0,3-2.5,5.5-5.5,5.5H6c-3,0-5.5-2.5-5.5-5.5V6C.5,3,3,.5,6,.5h20M26,0H6C2.7,0,0,2.7,0,6v20c0,3.3,2.7,6,6,6h20c3.3,0,6-2.7,6-6V6c0-3.3-2.7-6-6-6h0Z"/>
  </g>
  <g class="st1">
    <path class="st2" d="M10.9,8.4h10.7v3.5h-6.6v3h5.6v3.5h-5.6v5.7h-4.1v-15.6Z"/>
  </g>
</svg>